<svg width="16" height="13" viewBox="0 0 16 13" fill="none" xmlns="http://www.w3.org/2000/svg">
<path d="M13.8163 1.8142H10.7873L10.4928 0.9305C10.3073 0.37407 9.78858 0.000244141 9.2021 0.000244141H6.27697C5.69049 0.000244141 5.17179 0.37407 4.98632 0.9305L4.69173 1.8142H3.96047V1.05838C3.96047 0.474926 3.48578 0.000244141 2.90233 0.000244141H2.29767C1.71422 0.000244141 1.23953 0.474926 1.23953 1.05838V1.86898C0.527014 2.05666 0 2.70636 0 3.47699V11.3375C0 12.2543 0.745928 13.0002 1.66279 13.0002H13.8163C14.7331 13.0002 15.4791 12.2543 15.4791 11.3375V3.47699C15.4791 2.56013 14.7331 1.8142 13.8163 1.8142ZM2.14651 1.05838C2.14651 0.975033 2.21432 0.907221 2.29767 0.907221H2.90233C2.98568 0.907221 3.05349 0.975033 3.05349 1.05838V1.8142H2.14651V1.05838ZM14.5721 11.3375C14.5721 11.7542 14.233 12.0933 13.8163 12.0933H1.66279C1.24603 12.0933 0.906977 11.7542 0.906977 11.3375V3.47699C0.906977 3.06023 1.24603 2.72117 1.66279 2.72117H5.0186C5.21379 2.72117 5.38708 2.59628 5.44881 2.41108L5.84674 1.21732C5.90859 1.03184 6.08146 0.907221 6.27697 0.907221H9.2021C9.39761 0.907221 9.57051 1.03184 9.6323 1.21729L10.0302 2.41108C10.092 2.59628 10.2653 2.72117 10.4605 2.72117H13.8163C14.233 2.72117 14.5721 3.06023 14.5721 3.47699V11.3375Z" fill="black"/>
<path d="M13.1814 4.53515C13.4318 4.53515 13.6349 4.33212 13.6349 4.08166C13.6349 3.83121 13.4318 3.62817 13.1814 3.62817C12.9309 3.62817 12.7279 3.83121 12.7279 4.08166C12.7279 4.33212 12.9309 4.53515 13.1814 4.53515Z" fill="black"/>
<path d="M3.20464 3.62817H2.29767C2.04722 3.62817 1.84418 3.83122 1.84418 4.08166C1.84418 4.33211 2.04722 4.53515 2.29767 4.53515H3.20464C3.45509 4.53515 3.65813 4.33211 3.65813 4.08166C3.65813 3.83122 3.45509 3.62817 3.20464 3.62817Z" fill="black"/>
<path d="M7.73954 11.1862C5.48906 11.1862 3.65814 9.35531 3.65814 7.10483C3.65814 4.85435 5.48906 3.02344 7.73954 3.02344C9.99002 3.02344 11.8209 4.85435 11.8209 7.10483C11.8209 9.35531 9.99002 11.1862 7.73954 11.1862ZM7.73954 3.93041C5.98916 3.93041 4.56512 5.35446 4.56512 7.10483C4.56512 8.85521 5.98916 10.2793 7.73954 10.2793C9.48991 10.2793 10.914 8.85521 10.914 7.10483C10.914 5.35446 9.48991 3.93041 7.73954 3.93041Z" fill="black"/>
<path d="M7.73955 9.37229C6.48928 9.37229 5.47211 8.35511 5.47211 7.10484C5.47211 5.85458 6.48928 4.8374 7.73955 4.8374C8.98982 4.8374 10.007 5.85458 10.007 7.10484C10.007 8.35511 8.98982 9.37229 7.73955 9.37229ZM7.73955 5.74438C6.98939 5.74438 6.37908 6.35468 6.37908 7.10484C6.37908 7.855 6.98939 8.46531 7.73955 8.46531C8.48971 8.46531 9.10001 7.855 9.10001 7.10484C9.10001 6.35468 8.48971 5.74438 7.73955 5.74438Z" fill="black"/>
</svg>
