<svg width="13" height="13" viewBox="0 0 13 13" fill="none" xmlns="http://www.w3.org/2000/svg">
<g clip-path="url(#clip0)">
<path d="M12.8349 6.10173L7.8941 1.16097C7.67391 0.940809 7.31738 0.940809 7.09719 1.16097C6.87703 1.38096 6.87703 1.7379 7.09719 1.95788L11.6395 6.50019L7.09722 11.0425C6.87705 11.2625 6.87705 11.6194 7.09722 11.8394C7.20731 11.9495 7.3514 12.0045 7.49567 12.0045C7.63994 12.0045 7.78424 11.9495 7.89413 11.8394L12.8349 6.89864C13.0551 6.67866 13.0551 6.32172 12.8349 6.10173Z" fill="black"/>
<path d="M5.90279 6.10173L0.962032 1.16097C0.742047 0.940809 0.385106 0.940809 0.165122 1.16097C-0.0550405 1.38096 -0.0550405 1.7379 0.165122 1.95788L4.70725 6.50019L0.165147 11.0425C-0.0550151 11.2625 -0.0550151 11.6194 0.165147 11.8394C0.275038 11.9495 0.419333 12.0045 0.563602 12.0045C0.707872 12.0045 0.852167 11.9495 0.962057 11.8394L5.90282 6.89864C6.12296 6.67866 6.12296 6.32172 5.90279 6.10173Z" fill="black"/>
</g>
<defs>
<clipPath id="clip0">
<rect width="13" height="13" fill="white"/>
</clipPath>
</defs>
</svg>
