<svg width="13" height="13" viewBox="0 0 13 13" fill="none" xmlns="http://www.w3.org/2000/svg">
<g clip-path="url(#clip0)">
<path d="M0.165063 6.89827L5.10584 11.839C5.32602 12.0592 5.68256 12.0592 5.90275 11.839C6.12291 11.619 6.12291 11.2621 5.90275 11.0421L1.36041 6.49981L5.90272 1.95751C6.12289 1.73752 6.12289 1.38058 5.90272 1.1606C5.79263 1.0505 5.64854 0.995456 5.50427 0.995456C5.36 0.995456 5.2157 1.0505 5.10581 1.1606L0.165038 6.10136C-0.0551253 6.32134 -0.0551252 6.67828 0.165063 6.89827Z" fill="black"/>
<path d="M7.09721 6.89827L12.038 11.839C12.258 12.0592 12.6149 12.0592 12.8349 11.839C13.055 11.619 13.055 11.2621 12.8349 11.0421L8.29275 6.49981L12.8349 1.95751C13.055 1.73752 13.055 1.38058 12.8349 1.1606C12.725 1.0505 12.5807 0.995456 12.4364 0.995456C12.2921 0.995456 12.1478 1.0505 12.0379 1.1606L7.09718 6.10136C6.87704 6.32134 6.87704 6.67828 7.09721 6.89827Z" fill="black"/>
</g>
<defs>
<clipPath id="clip0">
<rect width="13" height="13" fill="white" transform="translate(13 13) rotate(180)"/>
</clipPath>
</defs>
</svg>
