<svg width="14" height="13" viewBox="0 0 14 13" fill="none" xmlns="http://www.w3.org/2000/svg">
<g clip-path="url(#clip0)">
<path d="M2.91667 0H0.583333C0.261333 0 0 0.242667 0 0.541667V2.70833C0 3.00733 0.261333 3.25 0.583333 3.25H2.91667C3.23867 3.25 3.5 3.00733 3.5 2.70833V0.541667C3.5 0.242667 3.23867 0 2.91667 0Z" fill="black"/>
<path d="M15.4134 0H5.04806C4.63937 0 4.30768 0.224 4.30768 0.5V2.5C4.30768 2.776 4.63937 3 5.04806 3H15.4134C15.8221 3 16.1538 2.776 16.1538 2.5V0.5C16.1538 0.224 15.8221 0 15.4134 0Z" fill="black"/>
<path d="M2.91667 4.875H0.583333C0.261333 4.875 0 5.11767 0 5.41667V7.58333C0 7.88233 0.261333 8.125 0.583333 8.125H2.91667C3.23867 8.125 3.5 7.88233 3.5 7.58333V5.41667C3.5 5.11767 3.23867 4.875 2.91667 4.875Z" fill="black"/>
<path d="M13.4167 4.875H5.24999C4.92799 4.875 4.66666 5.11767 4.66666 5.41667V7.58333C4.66666 7.88233 4.92799 8.125 5.24999 8.125H13.4167C13.7387 8.125 14 7.88233 14 7.58333V5.41667C14 5.11767 13.7387 4.875 13.4167 4.875Z" fill="black"/>
<path d="M2.91667 9.75H0.583333C0.261333 9.75 0 9.99267 0 10.2917V12.4583C0 12.7573 0.261333 13 0.583333 13H2.91667C3.23867 13 3.5 12.7573 3.5 12.4583V10.2917C3.5 9.99267 3.23867 9.75 2.91667 9.75Z" fill="black"/>
<path d="M15.4134 10H5.04806C4.63937 10 4.30768 10.224 4.30768 10.5V12.5C4.30768 12.776 4.63937 13 5.04806 13H15.4134C15.8221 13 16.1538 12.776 16.1538 12.5V10.5C16.1538 10.224 15.8221 10 15.4134 10Z" fill="black"/>
</g>
<defs>
<clipPath id="clip0">
<rect width="14" height="13" fill="white"/>
</clipPath>
</defs>
</svg>
