<svg width="15" height="13" viewBox="0 0 15 13" fill="none" xmlns="http://www.w3.org/2000/svg">
<path d="M0 5.45725H3.68792V0.603027H0V5.45725ZM0.976689 1.8886H2.71136V4.17185H0.976689V1.8886Z" fill="black"/>
<path d="M2.60095 0.603027V5.45725H14.4077V0.603027H2.60095ZM13.431 4.17185H3.57764V1.8886H13.431V4.17185Z" fill="black"/>
<path d="M0 8.88084H3.68792V4.02661H0V8.88084ZM0.976689 5.31201H2.71136V7.59527H0.976689V5.31201Z" fill="black"/>
<path d="M2.60095 8.88084H14.4077V4.02661H2.60095V8.88084ZM3.57764 5.31201H13.431V7.59527H3.57764V5.31201Z" fill="black"/>
<path d="M0 12.3046H3.68792V7.4502H0V12.3046ZM0.976689 8.73576H2.71136V11.019H0.976689V8.73576Z" fill="black"/>
<path d="M2.60095 12.3046H14.4077V7.4502H2.60095V12.3046ZM3.57764 8.73576H13.431V11.019H3.57764V8.73576Z" fill="black"/>
</svg>
