<svg width="13" height="13" viewBox="0 0 13 13" fill="none" xmlns="http://www.w3.org/2000/svg">
<g clip-path="url(#clip0)">
<path d="M3.78697 0H3.11929C2.42354 0 1.85754 0.565997 1.85754 1.26175V11.7383C1.85754 12.434 2.42354 13 3.11929 13H3.78697C4.48272 13 5.04875 12.434 5.04875 11.7383V1.26175C5.04871 0.565997 4.48268 0 3.78697 0ZM4.4691 11.7382C4.4691 12.1143 4.16306 12.4204 3.78693 12.4204H3.11929C2.74316 12.4204 2.43716 12.1143 2.43716 11.7382V1.26175C2.43716 0.885615 2.74316 0.579618 3.11929 0.579618H3.78697C4.1631 0.579618 4.46914 0.885615 4.46914 1.26175V11.7382H4.4691Z" fill="black"/>
<path d="M8.9783 0H8.31062C7.61487 0 7.04883 0.565997 7.04883 1.26175V11.7383C7.04883 12.434 7.61487 13 8.31062 13H8.9783C9.67405 13 10.2401 12.434 10.2401 11.7383V1.26175C10.2401 0.565997 9.67405 0 8.9783 0ZM9.66043 11.7382C9.66043 12.1143 9.35443 12.4204 8.9783 12.4204H8.31062C7.93449 12.4204 7.62845 12.1143 7.62845 11.7382V1.26175C7.62845 0.885615 7.93449 0.579618 8.31062 0.579618H8.9783C9.35443 0.579618 9.66043 0.885615 9.66043 1.26175V11.7382Z" fill="black"/>
</g>
<defs>
<clipPath id="clip0">
<rect width="13" height="13" fill="white"/>
</clipPath>
</defs>
</svg>
