<svg width="13" height="13" viewBox="0 0 13 13" fill="none" xmlns="http://www.w3.org/2000/svg">
<g clip-path="url(#clip0)">
<path d="M3.13772 6.85674L9.1506 12.853C9.34761 13.0493 9.66656 13.049 9.86324 12.852C10.0598 12.655 10.0593 12.3358 9.86222 12.1393L4.20724 6.49998L9.86243 0.86064C10.0594 0.664117 10.0599 0.345186 9.86344 0.148156C9.76485 0.049387 9.63569 1.94012e-06 9.50653 1.95141e-06C9.37769 1.96267e-06 9.24904 0.0490561 9.15063 0.14714L3.13772 6.14324C3.04284 6.23764 2.98959 6.36612 2.98959 6.49998C2.98959 6.63384 3.04299 6.76216 3.13772 6.85674Z" fill="black"/>
</g>
<defs>
<clipPath id="clip0">
<rect width="13" height="13" fill="white" transform="translate(13 13) rotate(180)"/>
</clipPath>
</defs>
</svg>
