<svg width="13" height="13" viewBox="0 0 13 13" fill="none" xmlns="http://www.w3.org/2000/svg">
<path d="M12.0829 3.27537H10.6268V0.897934C10.6268 0.680813 10.4508 0.504883 10.2337 0.504883H2.7663C2.54923 0.504883 2.37325 0.680813 2.37325 0.897934V3.27537H0.917121C0.411446 3.27537 0 3.68677 0 4.19249V9.23535C0 9.74102 0.411446 10.1525 0.917121 10.1525H2.37325V12.1022C2.37325 12.3193 2.54923 12.4952 2.7663 12.4952H10.2337C10.4507 12.4952 10.6267 12.3193 10.6267 12.1022V10.1525H12.0828C12.5885 10.1525 12.9999 9.74102 12.9999 9.23535V4.19249C13 3.68682 12.5886 3.27537 12.0829 3.27537ZM3.15935 1.29099H9.8406V3.27537H3.15935V1.29099ZM9.8406 11.7091H3.15935V7.80983H9.8406V11.7091ZM12.2139 9.23535C12.2139 9.30636 12.1539 9.36636 12.0829 9.36636H10.6268V7.41677C10.6268 7.19965 10.4508 7.02372 10.2337 7.02372H2.7663C2.54923 7.02372 2.37325 7.19965 2.37325 7.41677V9.36636H0.917121C0.846109 9.36636 0.786103 9.30636 0.786103 9.23535V4.19249C0.786103 4.12143 0.846109 4.06148 0.917121 4.06148H2.7663H10.2337H12.0828C12.1538 4.06148 12.2138 4.12143 12.2138 4.19249V9.23535H12.2139Z" fill="black"/>
<path d="M10.2337 6.1018C10.5424 6.1018 10.7927 5.85149 10.7927 5.54272C10.7927 5.23395 10.5424 4.98364 10.2337 4.98364C9.9249 4.98364 9.67459 5.23395 9.67459 5.54272C9.67459 5.85149 9.9249 6.1018 10.2337 6.1018Z" fill="black"/>
<path d="M8.2882 8.58545H4.71175C4.49468 8.58545 4.3187 8.76138 4.3187 8.9785C4.3187 9.19562 4.49468 9.37155 4.71175 9.37155H8.2882C8.50527 9.37155 8.68125 9.19562 8.68125 8.9785C8.68125 8.76143 8.50532 8.58545 8.2882 8.58545Z" fill="black"/>
<path d="M8.2882 10.1472H4.71175C4.49468 10.1472 4.3187 10.3231 4.3187 10.5403C4.3187 10.7574 4.49468 10.9333 4.71175 10.9333H8.2882C8.50527 10.9333 8.68125 10.7574 8.68125 10.5403C8.68125 10.3231 8.50532 10.1472 8.2882 10.1472Z" fill="black"/>
</svg>
