<svg width="13" height="13" viewBox="0 0 13 13" fill="none" xmlns="http://www.w3.org/2000/svg">
<path d="M6.44549 1.0542C7.40316 1.0542 8.36235 1.32604 9.21938 1.84039C9.76297 2.16745 10.2514 2.57849 10.6664 3.05847L9.23462 3.01125C9.06647 3.00563 8.92565 3.1375 8.92012 3.30574C8.9146 3.47389 9.04638 3.61481 9.21462 3.62024L11.1956 3.68565C11.3094 3.7325 11.4402 3.70631 11.5272 3.61919C11.6141 3.53207 11.6401 3.40125 11.5931 3.28746L11.5279 1.30699C11.5241 1.13875 11.3846 1.00545 11.2163 1.00916C11.0482 1.01297 10.9147 1.15246 10.9185 1.32061C10.9185 1.3229 10.9185 1.32499 10.9187 1.32718L10.9564 2.46976C10.5373 2.02187 10.0582 1.63406 9.53293 1.31766C8.58125 0.746655 7.51361 0.444824 6.44549 0.444824C4.73924 0.444824 3.1661 1.14837 2.01647 2.42577C0.998057 3.5574 0.390015 5.08055 0.390015 6.5003C0.390015 6.66854 0.526362 6.80499 0.694702 6.80499C0.863042 6.80499 0.99939 6.66854 0.99939 6.5003C0.99939 5.22699 1.54887 3.85618 2.46941 2.83348C3.50211 1.68624 4.91405 1.0542 6.44549 1.0542Z" fill="black"/>
<path d="M12.2728 6.19556C12.1045 6.19556 11.9682 6.3319 11.9682 6.50024C11.9682 7.77346 11.4187 9.14436 10.4981 10.1672C9.46543 11.3144 8.05348 11.9462 6.52204 11.9462C5.56437 11.9462 4.60517 11.6746 3.74814 11.1602C3.20456 10.8331 2.71611 10.422 2.30116 9.94217L3.73291 9.98939C3.90106 9.99482 4.04188 9.86295 4.0474 9.6948C4.05293 9.52665 3.92115 9.38583 3.7529 9.38021L1.77195 9.31489C1.65817 9.26804 1.52735 9.29432 1.44032 9.38135C1.35339 9.46847 1.32739 9.5992 1.37443 9.71298L1.43965 11.6935C1.44346 11.8618 1.58295 11.9952 1.7512 11.9914C1.91935 11.9877 2.05284 11.8482 2.04903 11.6799C2.04903 11.6777 2.04903 11.6756 2.04884 11.6734L2.01113 10.5308C2.43027 10.9788 2.9093 11.3664 3.4346 11.683C4.38627 12.2541 5.45392 12.5558 6.52204 12.5558C8.2283 12.5558 9.80144 11.8524 10.9511 10.575C11.9695 9.44324 12.5775 7.92009 12.5775 6.50024C12.5775 6.3319 12.4412 6.19556 12.2728 6.19556Z" fill="black"/>
<circle cx="6.5" cy="6.5" r="2.25" stroke="black" stroke-width="0.5"/>
</svg>
