<svg width="15" height="13" viewBox="0 0 15 13" fill="none" xmlns="http://www.w3.org/2000/svg">
<path d="M5.34558 3.94776L6.79692 2.68993V9.34377C6.79692 9.50539 6.871 9.66039 7.00286 9.77467C7.13472 9.88895 7.31356 9.95315 7.50004 9.95315C7.68652 9.95315 7.86537 9.88895 7.99723 9.77467C8.12909 9.66039 8.20317 9.50539 8.20317 9.34377V2.68993L9.65451 3.94776C9.71973 4.00459 9.79726 4.04972 9.88264 4.08055C9.96803 4.11138 10.0596 4.1273 10.1521 4.12741C10.2446 4.12752 10.3362 4.11181 10.4217 4.08118C10.5072 4.05056 10.5848 4.00561 10.6502 3.94893C10.7156 3.89225 10.7675 3.82493 10.8028 3.75085C10.8382 3.67677 10.8563 3.59737 10.8562 3.51721C10.856 3.43704 10.8377 3.35769 10.8021 3.28369C10.7665 3.20969 10.7145 3.1425 10.6489 3.08597L7.99724 0.787868C7.93195 0.731279 7.85444 0.68639 7.76913 0.655764C7.68382 0.625138 7.59238 0.609375 7.50004 0.609375C7.40771 0.609375 7.31627 0.625138 7.23096 0.655764C7.14565 0.68639 7.06814 0.731279 7.00285 0.787868L4.35122 3.08597C4.28563 3.1425 4.23356 3.20969 4.19799 3.28369C4.16242 3.35769 4.14405 3.43704 4.14392 3.51721C4.1438 3.59737 4.16192 3.67677 4.19726 3.75085C4.2326 3.82493 4.28446 3.89225 4.34986 3.94893C4.41527 4.00561 4.49293 4.05056 4.57841 4.08118C4.66389 4.11181 4.75551 4.12752 4.848 4.12741C4.9405 4.1273 5.03206 4.11138 5.11744 4.08055C5.20283 4.04972 5.28035 4.00459 5.34558 3.94776Z" fill="black"/>
<path d="M13.5938 5.89062C13.4073 5.89063 13.2284 5.95483 13.0966 6.06911C12.9647 6.18339 12.8906 6.33838 12.8906 6.5V11.1719H2.10938V6.5C2.10938 6.33838 2.0353 6.18339 1.90343 6.06911C1.77157 5.95483 1.59273 5.89063 1.40625 5.89062C1.21977 5.89063 1.04093 5.95483 0.909066 6.06911C0.777204 6.18339 0.703125 6.33838 0.703125 6.5V11.375C0.703125 11.6444 0.82659 11.9027 1.04636 12.0932C1.26613 12.2836 1.5642 12.3906 1.875 12.3906H13.125C13.4358 12.3906 13.7339 12.2836 13.9536 12.0932C14.1734 11.9027 14.2969 11.6444 14.2969 11.375V6.5C14.2969 6.33838 14.2228 6.18339 14.0909 6.06911C13.9591 5.95483 13.7802 5.89063 13.5938 5.89062Z" fill="black"/>
<path d="M5.43958 3.68372L6.82752 2.29578V9.63794C6.82752 9.81627 6.89836 9.9873 7.02447 10.1134C7.15057 10.2395 7.3216 10.3104 7.49993 10.3104C7.67827 10.3104 7.8493 10.2395 7.9754 10.1134C8.1015 9.9873 8.17234 9.81627 8.17234 9.63794V2.29578L9.56029 3.68372C9.62267 3.74644 9.69681 3.79624 9.77846 3.83025C9.86011 3.86427 9.94768 3.88184 10.0361 3.88196C10.1246 3.88208 10.2122 3.86475 10.2939 3.83095C10.3757 3.79716 10.45 3.74757 10.5125 3.68502C10.5751 3.62247 10.6247 3.5482 10.6584 3.46645C10.6922 3.3847 10.7096 3.29709 10.7095 3.20864C10.7093 3.12018 10.6918 3.03262 10.6577 2.95096C10.6237 2.86931 10.5739 2.79517 10.5112 2.73279L7.97541 0.196957C7.91297 0.134514 7.83884 0.0849817 7.75726 0.0511877C7.67568 0.0173936 7.58824 0 7.49993 0C7.41163 0 7.32419 0.0173936 7.2426 0.0511877C7.16102 0.0849817 7.08689 0.134514 7.02445 0.196957L4.48865 2.73279C4.42593 2.79517 4.37613 2.86931 4.34212 2.95096C4.3081 3.03262 4.29053 3.12018 4.29041 3.20864C4.29029 3.29709 4.30762 3.3847 4.34141 3.46645C4.37521 3.5482 4.4248 3.62247 4.48735 3.68502C4.5499 3.74757 4.62417 3.79716 4.70592 3.83095C4.78767 3.86475 4.87528 3.88208 4.96373 3.88196C5.05219 3.88184 5.13975 3.86427 5.22141 3.83025C5.30306 3.79624 5.3772 3.74644 5.43958 3.68372V3.68372Z" fill="black"/>
<path d="M13.3276 5.82764C13.1492 5.82764 12.9782 5.89848 12.8521 6.02458C12.726 6.15068 12.6551 6.32171 12.6551 6.50005V11.6552H2.34482V6.50005C2.34482 6.32171 2.27398 6.15068 2.14788 6.02458C2.02178 5.89848 1.85075 5.82764 1.67241 5.82764C1.49408 5.82764 1.32305 5.89848 1.19695 6.02458C1.07084 6.15068 1 6.32171 1 6.50005V11.8793C1 12.1766 1.11807 12.4616 1.32824 12.6718C1.53841 12.882 1.82346 13 2.12069 13H12.8793C13.1765 13 13.4616 12.882 13.6717 12.6718C13.8819 12.4616 14 12.1766 14 11.8793V6.50005C14 6.32171 13.9291 6.15068 13.803 6.02458C13.6769 5.89848 13.5059 5.82764 13.3276 5.82764Z" fill="black"/>
</svg>
